<svg width="20" height="21" viewBox="0 0 20 21" fill="none" xmlns="http://www.w3.org/2000/svg">
<path fill-rule="evenodd" clip-rule="evenodd" d="M2.54 0.862305H5.92C7.33 0.862305 8.46 2.0123 8.46 3.4233V6.8323C8.46 8.2523 7.33 9.3923 5.92 9.3923H2.54C1.14 9.3923 0 8.2523 0 6.8323V3.4233C0 2.0123 1.14 0.862305 2.54 0.862305ZM2.54 12.332H5.92C7.33 12.332 8.46 13.473 8.46 14.893V18.302C8.46 19.712 7.33 20.862 5.92 20.862H2.54C1.14 20.862 0 19.712 0 18.302V14.893C0 13.473 1.14 12.332 2.54 12.332ZM17.4601 0.862305H14.0801C12.6701 0.862305 11.5401 2.0123 11.5401 3.4233V6.8323C11.5401 8.2523 12.6701 9.3923 14.0801 9.3923H17.4601C18.8601 9.3923 20.0001 8.2523 20.0001 6.8323V3.4233C20.0001 2.0123 18.8601 0.862305 17.4601 0.862305ZM14.0801 12.332H17.4601C18.8601 12.332 20.0001 13.473 20.0001 14.893V18.302C20.0001 19.712 18.8601 20.862 17.4601 20.862H14.0801C12.6701 20.862 11.5401 19.712 11.5401 18.302V14.893C11.5401 13.473 12.6701 12.332 14.0801 12.332Z" fill="white"/>
</svg>
